<svg xmlns="http://www.w3.org/2000/svg" id="Layer_1" data-name="Layer 1" viewBox="0 0 24 24" width="512" height="512">
  <path d="m20,24H4c-.552,0-1-.447-1-1,0-3.309,2.691-6,6-6h6c3.309,0,6,2.691,6,6,0,.553-.448,1-1,1Z" fill="lightgray"/>
  <path d="m20.5,6h-.5c0-2.206-1.794-4-4-4h-3v-1c0-.553-.448-1-1-1s-1,.447-1,1v1h-3c-2.206,0-4,1.794-4,4h-.5c-.827,0-1.5.673-1.5,1.5v2c0,.827.673,1.5,1.5,1.5h.5c0,2.206,1.794,4,4,4h8c2.206,0,4-1.794,4-4h.5c.827,0,1.5-.673,1.5-1.5v-2c0-.827-.673-1.5-1.5-1.5Z" fill="lightgray"/>
  <path d="m9.5,12c-.828,0-1.5-.672-1.5-1.5s.672-1.5,1.5-1.5,1.5,.672,1.5,1.5-.672,1.5-1.5,1.5Z" fill="black"/>
  <path d="m14.5,12c-.828,0-1.5-.672-1.5-1.5s.672-1.5,1.5-1.5,1.5,.672,1.5,1.5-.672,1.5-1.5,1.5Z" fill="black"/>
</svg>
